<svg width="814" height="106" viewBox="0 0 814 106" fill="none" xmlns="http://www.w3.org/2000/svg">
<mask id="path-1-inside-1_271_346" fill="white">
<path d="M60.208 31.3211C60.208 14.2002 74.0872 0.321045 91.2081 0.321045H100.347V65.7439C100.347 87.9119 82.376 105.883 60.208 105.883V70.1687H40.1387V74.8827C40.1387 92.0035 26.2595 105.883 9.13869 105.883H0V40.4598C0 18.2918 17.9707 0.321045 40.1387 0.321045V36.035H60.208V31.3211Z"/>
<path d="M106.055 1.42723L106.846 0.321045L132.347 0.974919C142.986 1.24771 152.37 8.01275 155.992 18.02C157.256 20.8645 160.733 36.5091 161.997 42.5141H162.945C164.209 36.5091 167.686 20.8645 168.95 18.02C174.005 7.81195 184.29 1.23474 195.677 0.926978L218.096 0.321045L218.886 1.42723L183.014 71.1169V105.883H141.927V71.1169L106.055 1.42723Z"/>
<path d="M224.223 105.883V0.321045H285.064C310.822 0.321045 319.987 11.2249 319.987 26.3954C319.987 39.0375 315.721 47.0968 303.869 50.0993V50.8895C317.301 52.6278 324.096 61.1612 324.096 74.9095C324.096 94.6628 313.982 105.883 288.382 105.883H224.223ZM265.152 41.882H274.634C279.849 41.882 281.587 39.9857 281.587 36.035V31.9263C281.587 28.1337 279.849 26.5534 274.634 26.5534H265.152V41.882ZM265.152 79.6503H276.214C281.587 79.6503 283.167 77.754 283.167 73.6453V68.9045C283.167 65.2699 281.745 63.2155 275.582 63.2155H265.152V79.6503Z"/>
<path d="M374.126 69.0625C392.89 69.0625 408.102 84.2739 408.102 103.038V104.888C408.102 105.437 407.656 105.883 407.107 105.883H364.249C346.576 105.883 332.249 91.5558 332.249 73.8827V1.15859C332.249 0.696027 332.624 0.321045 333.087 0.321045C355.752 0.321045 374.126 18.695 374.126 41.3605V69.0625Z"/>
<path d="M415.606 63.9263C415.606 46.2532 429.932 31.9263 447.606 31.9263H455.744V73.8826C455.744 91.5558 441.417 105.883 423.744 105.883H415.606V63.9263Z"/>
<path d="M582.399 105.883C581.861 105.883 581.356 105.623 581.044 105.185C580.853 104.919 580.746 104.608 580.742 104.28C580.693 99.6871 581.129 64.5136 605.621 52.7823C606.416 52.4017 606.441 51.2145 605.662 50.8042C581.58 38.127 581.434 6.2144 581.527 1.91025C581.534 1.58764 581.642 1.2876 581.829 1.02501C582.145 0.583235 582.654 0.321045 583.197 0.321045H604.291C616.953 0.321045 628.499 7.56622 634.007 18.9682C634.931 21.2778 637.055 28.2381 638.332 32.1018C638.392 32.281 638.559 32.4004 638.747 32.4004C638.936 32.4004 639.103 32.281 639.163 32.1019C640.441 28.2381 642.568 21.2778 643.646 18.9682C649.051 7.57962 660.53 0.321045 673.136 0.321045H694.122C694.676 0.321045 695.196 0.588462 695.518 1.03905C695.699 1.29301 695.807 1.586 695.823 1.89769C696.047 6.23296 696.906 39.328 671.965 50.8289C671.133 51.2124 671.128 52.4749 671.956 52.8663C696.968 64.689 696.741 99.7485 696.604 104.29C696.594 104.61 696.486 104.915 696.3 105.176C695.983 105.619 695.471 105.883 694.926 105.883H671.906C660.278 105.883 649.722 99.086 644.911 88.4998C643.052 84.4725 640.738 76.6497 639.158 71.5791C639.102 71.3969 638.934 71.2749 638.743 71.2749C638.557 71.2749 638.391 71.3912 638.331 71.5675C636.603 76.6378 634.29 84.4695 632.584 88.4998C627.67 99.0998 617.049 105.883 605.365 105.883H582.399Z"/>
<path d="M698.918 105.883C698.38 105.883 697.87 105.623 697.557 105.185C697.367 104.918 697.259 104.608 697.256 104.281C697.202 99.6994 697.601 64.6618 721.977 52.8566C722.792 52.4619 722.787 51.2219 721.967 50.836C696.949 39.0526 697.803 6.20909 698.027 1.89658C698.043 1.58519 698.151 1.29316 698.333 1.03943C698.655 0.588605 699.174 0.321045 699.729 0.321045H720.804C733.467 0.321045 745.013 7.56622 750.52 18.9682C751.444 21.2778 753.568 28.2381 754.846 32.1018C754.905 32.281 755.072 32.4004 755.261 32.4004C755.45 32.4004 755.617 32.281 755.676 32.1019C756.954 28.2381 759.082 21.2778 760.16 18.9682C765.565 7.57962 777.044 0.321045 789.65 0.321045H810.591C811.173 0.321045 811.719 0.601968 812.057 1.07531C812.222 1.30664 812.33 1.56807 812.363 1.85041C812.822 5.77125 815.395 35.9497 788.014 50.8351C787.264 51.2425 787.286 52.3738 788.049 52.7549C813.298 65.3588 813.234 99.7965 813.116 104.291C813.107 104.612 812.999 104.916 812.812 105.177C812.496 105.62 811.986 105.883 811.442 105.883H788.42C776.791 105.883 766.236 99.086 761.424 88.4998C759.565 84.4725 757.251 76.6497 755.672 71.5791C755.615 71.3969 755.447 71.2749 755.256 71.2749C755.07 71.2749 754.905 71.3912 754.845 71.5675C753.117 76.6378 750.803 84.4695 749.098 88.4998C744.183 99.0998 733.562 105.883 721.878 105.883C714.751 105.883 707.88 105.883 698.918 105.883Z"/>
<path d="M467.135 105.883V0.321045H481.11C498.917 0.321045 515.525 9.29173 525.288 24.183C526.841 26.8228 533.429 39.6853 538.755 50.1769C538.92 50.5024 539.288 50.6687 539.642 50.5801C540.02 50.4856 540.271 50.1274 540.23 49.7399L539.226 40.0869C537.012 18.8244 553.689 0.321045 575.067 0.321045V105.883H564.268C545.385 105.883 527.791 96.3023 517.545 80.4404C515.989 78.1065 511.063 68.8784 505.933 60.2985C505.788 60.0549 505.51 59.9231 505.229 59.9632C504.866 60.0151 504.603 60.3367 504.625 60.7029L505.005 67.1963C506.236 88.1858 489.546 105.883 468.52 105.883H467.135Z"/>
</mask>
<path d="M60.208 31.3211C60.208 14.2002 74.0872 0.321045 91.2081 0.321045H100.347V65.7439C100.347 87.9119 82.376 105.883 60.208 105.883V70.1687H40.1387V74.8827C40.1387 92.0035 26.2595 105.883 9.13869 105.883H0V40.4598C0 18.2918 17.9707 0.321045 40.1387 0.321045V36.035H60.208V31.3211Z" fill="#EDF67D"/>
<path d="M106.055 1.42723L106.846 0.321045L132.347 0.974919C142.986 1.24771 152.37 8.01275 155.992 18.02C157.256 20.8645 160.733 36.5091 161.997 42.5141H162.945C164.209 36.5091 167.686 20.8645 168.95 18.02C174.005 7.81195 184.29 1.23474 195.677 0.926978L218.096 0.321045L218.886 1.42723L183.014 71.1169V105.883H141.927V71.1169L106.055 1.42723Z" fill="#EDF67D"/>
<path d="M224.223 105.883V0.321045H285.064C310.822 0.321045 319.987 11.2249 319.987 26.3954C319.987 39.0375 315.721 47.0968 303.869 50.0993V50.8895C317.301 52.6278 324.096 61.1612 324.096 74.9095C324.096 94.6628 313.982 105.883 288.382 105.883H224.223ZM265.152 41.882H274.634C279.849 41.882 281.587 39.9857 281.587 36.035V31.9263C281.587 28.1337 279.849 26.5534 274.634 26.5534H265.152V41.882ZM265.152 79.6503H276.214C281.587 79.6503 283.167 77.754 283.167 73.6453V68.9045C283.167 65.2699 281.745 63.2155 275.582 63.2155H265.152V79.6503Z" fill="#EDF67D"/>
<path d="M374.126 69.0625C392.89 69.0625 408.102 84.2739 408.102 103.038V104.888C408.102 105.437 407.656 105.883 407.107 105.883H364.249C346.576 105.883 332.249 91.5558 332.249 73.8827V1.15859C332.249 0.696027 332.624 0.321045 333.087 0.321045C355.752 0.321045 374.126 18.695 374.126 41.3605V69.0625Z" fill="#EDF67D"/>
<path d="M415.606 63.9263C415.606 46.2532 429.932 31.9263 447.606 31.9263H455.744V73.8826C455.744 91.5558 441.417 105.883 423.744 105.883H415.606V63.9263Z" fill="#EDF67D"/>
<path d="M582.399 105.883C581.861 105.883 581.356 105.623 581.044 105.185C580.853 104.919 580.746 104.608 580.742 104.28C580.693 99.6871 581.129 64.5136 605.621 52.7823C606.416 52.4017 606.441 51.2145 605.662 50.8042C581.58 38.127 581.434 6.2144 581.527 1.91025C581.534 1.58764 581.642 1.2876 581.829 1.02501C582.145 0.583235 582.654 0.321045 583.197 0.321045H604.291C616.953 0.321045 628.499 7.56622 634.007 18.9682C634.931 21.2778 637.055 28.2381 638.332 32.1018C638.392 32.281 638.559 32.4004 638.747 32.4004C638.936 32.4004 639.103 32.281 639.163 32.1019C640.441 28.2381 642.568 21.2778 643.646 18.9682C649.051 7.57962 660.53 0.321045 673.136 0.321045H694.122C694.676 0.321045 695.196 0.588462 695.518 1.03905C695.699 1.29301 695.807 1.586 695.823 1.89769C696.047 6.23296 696.906 39.328 671.965 50.8289C671.133 51.2124 671.128 52.4749 671.956 52.8663C696.968 64.689 696.741 99.7485 696.604 104.29C696.594 104.61 696.486 104.915 696.3 105.176C695.983 105.619 695.471 105.883 694.926 105.883H671.906C660.278 105.883 649.722 99.086 644.911 88.4998C643.052 84.4725 640.738 76.6497 639.158 71.5791C639.102 71.3969 638.934 71.2749 638.743 71.2749C638.557 71.2749 638.391 71.3912 638.331 71.5675C636.603 76.6378 634.29 84.4695 632.584 88.4998C627.67 99.0998 617.049 105.883 605.365 105.883H582.399Z" fill="#EDF67D"/>
<path d="M698.918 105.883C698.38 105.883 697.87 105.623 697.557 105.185C697.367 104.918 697.259 104.608 697.256 104.281C697.202 99.6994 697.601 64.6618 721.977 52.8566C722.792 52.4619 722.787 51.2219 721.967 50.836C696.949 39.0526 697.803 6.20909 698.027 1.89658C698.043 1.58519 698.151 1.29316 698.333 1.03943C698.655 0.588605 699.174 0.321045 699.729 0.321045H720.804C733.467 0.321045 745.013 7.56622 750.52 18.9682C751.444 21.2778 753.568 28.2381 754.846 32.1018C754.905 32.281 755.072 32.4004 755.261 32.4004C755.45 32.4004 755.617 32.281 755.676 32.1019C756.954 28.2381 759.082 21.2778 760.16 18.9682C765.565 7.57962 777.044 0.321045 789.65 0.321045H810.591C811.173 0.321045 811.719 0.601968 812.057 1.07531C812.222 1.30664 812.33 1.56807 812.363 1.85041C812.822 5.77125 815.395 35.9497 788.014 50.8351C787.264 51.2425 787.286 52.3738 788.049 52.7549C813.298 65.3588 813.234 99.7965 813.116 104.291C813.107 104.612 812.999 104.916 812.812 105.177C812.496 105.62 811.986 105.883 811.442 105.883H788.42C776.791 105.883 766.236 99.086 761.424 88.4998C759.565 84.4725 757.251 76.6497 755.672 71.5791C755.615 71.3969 755.447 71.2749 755.256 71.2749C755.07 71.2749 754.905 71.3912 754.845 71.5675C753.117 76.6378 750.803 84.4695 749.098 88.4998C744.183 99.0998 733.562 105.883 721.878 105.883C714.751 105.883 707.88 105.883 698.918 105.883Z" fill="#EDF67D"/>
<path d="M467.135 105.883V0.321045H481.11C498.917 0.321045 515.525 9.29173 525.288 24.183C526.841 26.8228 533.429 39.6853 538.755 50.1769C538.92 50.5024 539.288 50.6687 539.642 50.5801C540.02 50.4856 540.271 50.1274 540.23 49.7399L539.226 40.0869C537.012 18.8244 553.689 0.321045 575.067 0.321045V105.883H564.268C545.385 105.883 527.791 96.3023 517.545 80.4404C515.989 78.1065 511.063 68.8784 505.933 60.2985C505.788 60.0549 505.51 59.9231 505.229 59.9632C504.866 60.0151 504.603 60.3367 504.625 60.7029L505.005 67.1963C506.236 88.1858 489.546 105.883 468.52 105.883H467.135Z" fill="#EDF67D"/>
<path d="M60.208 31.3211C60.208 14.2002 74.0872 0.321045 91.2081 0.321045H100.347V65.7439C100.347 87.9119 82.376 105.883 60.208 105.883V70.1687H40.1387V74.8827C40.1387 92.0035 26.2595 105.883 9.13869 105.883H0V40.4598C0 18.2918 17.9707 0.321045 40.1387 0.321045V36.035H60.208V31.3211Z" stroke="#4C4B63" stroke-width="6" mask="url(#path-1-inside-1_271_346)"/>
<path d="M106.055 1.42723L106.846 0.321045L132.347 0.974919C142.986 1.24771 152.37 8.01275 155.992 18.02C157.256 20.8645 160.733 36.5091 161.997 42.5141H162.945C164.209 36.5091 167.686 20.8645 168.95 18.02C174.005 7.81195 184.29 1.23474 195.677 0.926978L218.096 0.321045L218.886 1.42723L183.014 71.1169V105.883H141.927V71.1169L106.055 1.42723Z" stroke="#4C4B63" stroke-width="6" mask="url(#path-1-inside-1_271_346)"/>
<path d="M224.223 105.883V0.321045H285.064C310.822 0.321045 319.987 11.2249 319.987 26.3954C319.987 39.0375 315.721 47.0968 303.869 50.0993V50.8895C317.301 52.6278 324.096 61.1612 324.096 74.9095C324.096 94.6628 313.982 105.883 288.382 105.883H224.223ZM265.152 41.882H274.634C279.849 41.882 281.587 39.9857 281.587 36.035V31.9263C281.587 28.1337 279.849 26.5534 274.634 26.5534H265.152V41.882ZM265.152 79.6503H276.214C281.587 79.6503 283.167 77.754 283.167 73.6453V68.9045C283.167 65.2699 281.745 63.2155 275.582 63.2155H265.152V79.6503Z" stroke="#4C4B63" stroke-width="6" mask="url(#path-1-inside-1_271_346)"/>
<path d="M374.126 69.0625C392.89 69.0625 408.102 84.2739 408.102 103.038V104.888C408.102 105.437 407.656 105.883 407.107 105.883H364.249C346.576 105.883 332.249 91.5558 332.249 73.8827V1.15859C332.249 0.696027 332.624 0.321045 333.087 0.321045C355.752 0.321045 374.126 18.695 374.126 41.3605V69.0625Z" stroke="#4C4B63" stroke-width="6" mask="url(#path-1-inside-1_271_346)"/>
<path d="M415.606 63.9263C415.606 46.2532 429.932 31.9263 447.606 31.9263H455.744V73.8826C455.744 91.5558 441.417 105.883 423.744 105.883H415.606V63.9263Z" stroke="#4C4B63" stroke-width="6" mask="url(#path-1-inside-1_271_346)"/>
<path d="M582.399 105.883C581.861 105.883 581.356 105.623 581.044 105.185C580.853 104.919 580.746 104.608 580.742 104.28C580.693 99.6871 581.129 64.5136 605.621 52.7823C606.416 52.4017 606.441 51.2145 605.662 50.8042C581.58 38.127 581.434 6.2144 581.527 1.91025C581.534 1.58764 581.642 1.2876 581.829 1.02501C582.145 0.583235 582.654 0.321045 583.197 0.321045H604.291C616.953 0.321045 628.499 7.56622 634.007 18.9682C634.931 21.2778 637.055 28.2381 638.332 32.1018C638.392 32.281 638.559 32.4004 638.747 32.4004C638.936 32.4004 639.103 32.281 639.163 32.1019C640.441 28.2381 642.568 21.2778 643.646 18.9682C649.051 7.57962 660.53 0.321045 673.136 0.321045H694.122C694.676 0.321045 695.196 0.588462 695.518 1.03905C695.699 1.29301 695.807 1.586 695.823 1.89769C696.047 6.23296 696.906 39.328 671.965 50.8289C671.133 51.2124 671.128 52.4749 671.956 52.8663C696.968 64.689 696.741 99.7485 696.604 104.29C696.594 104.61 696.486 104.915 696.3 105.176C695.983 105.619 695.471 105.883 694.926 105.883H671.906C660.278 105.883 649.722 99.086 644.911 88.4998C643.052 84.4725 640.738 76.6497 639.158 71.5791C639.102 71.3969 638.934 71.2749 638.743 71.2749C638.557 71.2749 638.391 71.3912 638.331 71.5675C636.603 76.6378 634.29 84.4695 632.584 88.4998C627.67 99.0998 617.049 105.883 605.365 105.883H582.399Z" stroke="#4C4B63" stroke-width="6" mask="url(#path-1-inside-1_271_346)"/>
<path d="M698.918 105.883C698.38 105.883 697.87 105.623 697.557 105.185C697.367 104.918 697.259 104.608 697.256 104.281C697.202 99.6994 697.601 64.6618 721.977 52.8566C722.792 52.4619 722.787 51.2219 721.967 50.836C696.949 39.0526 697.803 6.20909 698.027 1.89658C698.043 1.58519 698.151 1.29316 698.333 1.03943C698.655 0.588605 699.174 0.321045 699.729 0.321045H720.804C733.467 0.321045 745.013 7.56622 750.52 18.9682C751.444 21.2778 753.568 28.2381 754.846 32.1018C754.905 32.281 755.072 32.4004 755.261 32.4004C755.45 32.4004 755.617 32.281 755.676 32.1019C756.954 28.2381 759.082 21.2778 760.16 18.9682C765.565 7.57962 777.044 0.321045 789.65 0.321045H810.591C811.173 0.321045 811.719 0.601968 812.057 1.07531C812.222 1.30664 812.33 1.56807 812.363 1.85041C812.822 5.77125 815.395 35.9497 788.014 50.8351C787.264 51.2425 787.286 52.3738 788.049 52.7549C813.298 65.3588 813.234 99.7965 813.116 104.291C813.107 104.612 812.999 104.916 812.812 105.177C812.496 105.62 811.986 105.883 811.442 105.883H788.42C776.791 105.883 766.236 99.086 761.424 88.4998C759.565 84.4725 757.251 76.6497 755.672 71.5791C755.615 71.3969 755.447 71.2749 755.256 71.2749C755.07 71.2749 754.905 71.3912 754.845 71.5675C753.117 76.6378 750.803 84.4695 749.098 88.4998C744.183 99.0998 733.562 105.883 721.878 105.883C714.751 105.883 707.88 105.883 698.918 105.883Z" stroke="#4C4B63" stroke-width="6" mask="url(#path-1-inside-1_271_346)"/>
<path d="M467.135 105.883V0.321045H481.11C498.917 0.321045 515.525 9.29173 525.288 24.183C526.841 26.8228 533.429 39.6853 538.755 50.1769C538.92 50.5024 539.288 50.6687 539.642 50.5801C540.02 50.4856 540.271 50.1274 540.23 49.7399L539.226 40.0869C537.012 18.8244 553.689 0.321045 575.067 0.321045V105.883H564.268C545.385 105.883 527.791 96.3023 517.545 80.4404C515.989 78.1065 511.063 68.8784 505.933 60.2985C505.788 60.0549 505.51 59.9231 505.229 59.9632C504.866 60.0151 504.603 60.3367 504.625 60.7029L505.005 67.1963C506.236 88.1858 489.546 105.883 468.52 105.883H467.135Z" stroke="#4C4B63" stroke-width="6" mask="url(#path-1-inside-1_271_346)"/>
</svg>
