<svg width="184" height="27" viewBox="0 0 184 27" fill="none" xmlns="http://www.w3.org/2000/svg">
<path d="M15.2835 9.93144C15.2835 6.09499 18.3935 2.98492 22.23 2.98492H24.2778V17.645C24.2778 22.6124 20.2509 26.6393 15.2835 26.6393V18.6365H10.7863V19.6928C10.7863 23.5292 7.67626 26.6393 3.8398 26.6393H1.79199V11.9792C1.79199 7.01182 5.81889 2.98492 10.7863 2.98492V10.9877H15.2835V9.93144Z" fill="#4C4B63"/>
<path d="M25.557 3.2328L25.7341 2.98492L31.4484 3.13145C33.8324 3.19257 35.9353 4.70849 36.7468 6.95092C37.0301 7.58832 37.8091 11.094 38.0924 12.4396H38.3049C38.5882 11.094 39.3672 7.58832 39.6505 6.95092C40.7833 4.66349 43.0878 3.18967 45.6394 3.1207L50.6632 2.98492L50.8403 3.2328L42.802 18.8489V26.6393H33.5952V18.8489L25.557 3.2328Z" fill="#4C4B63"/>
<path d="M52.0362 26.6393V2.98492H65.6693C71.4413 2.98492 73.4951 5.42826 73.4951 8.82769C73.4951 11.6606 72.539 13.4665 69.8832 14.1393V14.3164C72.8931 14.7059 74.4158 16.6181 74.4158 19.6988C74.4158 24.1251 72.1495 26.6393 66.413 26.6393H52.0362ZM61.2076 12.2979H63.3322C64.5008 12.2979 64.8903 11.873 64.8903 10.9877V10.0671C64.8903 9.21721 64.5008 8.8631 63.3322 8.8631H61.2076V12.2979ZM61.2076 20.7611H63.6863C64.8903 20.7611 65.2444 20.3362 65.2444 19.4155V18.3532C65.2444 17.5387 64.9257 17.0784 63.5447 17.0784H61.2076V20.7611Z" fill="#4C4B63"/>
<path d="M85.6266 18.3886C89.8313 18.3886 93.2399 21.7972 93.2399 26.0019V26.4163C93.2399 26.5394 93.1401 26.6393 93.0169 26.6393H83.4133C79.4531 26.6393 76.2428 23.4289 76.2428 19.4687V3.1726C76.2428 3.06895 76.3268 2.98492 76.4304 2.98492C81.5093 2.98492 85.6266 7.10219 85.6266 12.1811V18.3886Z" fill="#4C4B63"/>
<path d="M94.9214 17.2377C94.9214 13.2775 98.1317 10.0671 102.092 10.0671H103.916V19.4687C103.916 23.4289 100.705 26.6393 96.7451 26.6393H94.9214V17.2377Z" fill="#4C4B63"/>
<path d="M132.297 26.6393C132.176 26.6393 132.063 26.5811 131.993 26.483C131.95 26.4233 131.926 26.3536 131.925 26.2802C131.914 25.251 132.012 17.3693 137.5 14.7405C137.678 14.6552 137.684 14.3892 137.509 14.2972C132.113 11.4565 132.08 4.30551 132.101 3.34103C132.103 3.26874 132.127 3.20151 132.169 3.14267C132.24 3.04368 132.354 2.98492 132.475 2.98492H137.202C140.04 2.98492 142.627 4.60843 143.861 7.16339C144.068 7.68093 144.544 9.24061 144.83 10.1064C144.843 10.1466 144.881 10.1733 144.923 10.1733C144.966 10.1733 145.003 10.1466 145.016 10.1064C145.303 9.24061 145.779 7.68093 146.021 7.16339C147.232 4.61143 149.804 2.98492 152.629 2.98492H157.332C157.456 2.98492 157.572 3.04485 157.644 3.14582C157.685 3.20272 157.709 3.26838 157.713 3.33822C157.763 4.30967 157.955 11.7256 152.367 14.3028C152.18 14.3887 152.179 14.6716 152.365 14.7593C157.969 17.4086 157.918 25.2647 157.888 26.2824C157.886 26.3542 157.861 26.4225 157.82 26.4809C157.749 26.5803 157.634 26.6393 157.512 26.6393H152.353C149.748 26.6393 147.383 25.1163 146.304 22.7441C145.888 21.8417 145.369 20.0887 145.015 18.9525C145.003 18.9117 144.965 18.8843 144.922 18.8843C144.88 18.8843 144.843 18.9104 144.83 18.9499C144.443 20.0861 143.924 21.841 143.542 22.7441C142.441 25.1194 140.061 26.6393 137.443 26.6393H132.297Z" fill="#4C4B63"/>
<path d="M158.406 26.6393C158.286 26.6393 158.171 26.581 158.101 26.4829C158.059 26.4232 158.035 26.3536 158.034 26.2803C158.022 25.2537 158.111 17.4025 163.573 14.7572C163.756 14.6687 163.755 14.3908 163.571 14.3044C157.965 11.6639 158.156 4.30433 158.207 3.33797C158.21 3.2682 158.234 3.20276 158.275 3.1459C158.347 3.04488 158.464 2.98492 158.588 2.98492H163.311C166.148 2.98492 168.735 4.60843 169.969 7.16339C170.176 7.68093 170.652 9.24061 170.939 10.1064C170.952 10.1466 170.989 10.1733 171.032 10.1733C171.074 10.1733 171.111 10.1466 171.125 10.1064C171.411 9.24061 171.888 7.68093 172.129 7.16339C173.341 4.61143 175.913 2.98492 178.738 2.98492H183.43C183.561 2.98492 183.683 3.04787 183.759 3.15394C183.796 3.20578 183.82 3.26436 183.827 3.32763C183.93 4.20621 184.507 10.9686 178.371 14.3042C178.203 14.3955 178.208 14.649 178.379 14.7344C184.037 17.5586 184.022 25.2755 183.996 26.2825C183.994 26.3546 183.97 26.4226 183.928 26.4812C183.857 26.5804 183.743 26.6393 183.621 26.6393H178.462C175.856 26.6393 173.491 25.1163 172.413 22.7441C171.996 21.8417 171.478 20.0887 171.124 18.9525C171.111 18.9117 171.073 18.8843 171.031 18.8843C170.989 18.8843 170.952 18.9104 170.938 18.9499C170.551 20.0861 170.033 21.841 169.651 22.7441C168.549 25.1194 166.169 26.6393 163.551 26.6393C161.954 26.6393 160.415 26.6393 158.406 26.6393Z" fill="#4C4B63"/>
<path d="M106.468 26.6393V2.98492H109.6C113.59 2.98492 117.311 4.99509 119.499 8.33194C119.847 8.92346 121.323 11.8057 122.517 14.1567C122.554 14.2296 122.636 14.2669 122.716 14.247C122.8 14.2259 122.856 14.1456 122.847 14.0587L122.622 11.8957C122.126 7.13119 125.863 2.98492 130.654 2.98492V26.6393H128.234C124.002 26.6393 120.06 24.4925 117.764 20.9382C117.415 20.4152 116.311 18.3473 115.162 16.4247C115.129 16.3702 115.067 16.3406 115.004 16.3496C114.923 16.3612 114.864 16.4333 114.869 16.5154L114.954 17.9704C115.23 22.6738 111.49 26.6393 106.779 26.6393H106.468Z" fill="#4C4B63"/>
<path d="M99.7031 8.20799C93.0636 8.20799 93.0636 1.56848 93.0636 1.56848C93.0636 1.56848 93.0072 8.20799 86.4241 8.20799C93.0636 8.20799 93.0636 14.8475 93.0636 14.8475C93.0636 8.20309 99.7031 8.20799 99.7031 8.20799Z" fill="#4C4B63"/>
<mask id="path-3-inside-1_542_51" fill="white">
<path d="M13.4915 8.3629C13.4915 4.52644 16.6015 1.41638 20.438 1.41638H22.4858V16.0764C22.4858 21.0438 18.4589 25.0707 13.4915 25.0707V17.0679H8.99432V18.1242C8.99432 21.9607 5.88426 25.0707 2.04781 25.0707H0V10.4107C0 5.44328 4.0269 1.41638 8.99432 1.41638V9.4192H13.4915V8.3629Z"/>
<path d="M23.765 1.66426L23.9421 1.41638L29.6564 1.5629C32.0404 1.62403 34.1433 3.13995 34.9548 5.38238C35.2381 6.01977 36.0171 9.52544 36.3004 10.871H36.5129C36.7962 9.52544 37.5752 6.01977 37.8585 5.38238C38.9913 3.09495 41.2958 1.62112 43.8474 1.55216L48.8712 1.41638L49.0483 1.66426L41.01 17.2804V25.0707H31.8033V17.2804L23.765 1.66426Z"/>
<path d="M50.2442 25.0707V1.41638H63.8773C69.6493 1.41638 71.7031 3.85972 71.7031 7.25915C71.7031 10.092 70.747 11.898 68.0912 12.5708V12.7478C71.1011 13.1373 72.6238 15.0495 72.6238 18.1302C72.6238 22.5566 70.3575 25.0707 64.621 25.0707H50.2442ZM59.4156 10.7294H61.5402C62.7088 10.7294 63.0983 10.3045 63.0983 9.4192V8.49853C63.0983 7.64867 62.7088 7.29456 61.5402 7.29456H59.4156V10.7294ZM59.4156 19.1926H61.8943C63.0983 19.1926 63.4524 18.7676 63.4524 17.847V16.7846C63.4524 15.9702 63.1337 15.5098 61.7527 15.5098H59.4156V19.1926Z"/>
<path d="M83.8346 16.82C88.0393 16.82 91.4479 20.2286 91.4479 24.4334V24.8478C91.4479 24.9709 91.3481 25.0707 91.2249 25.0707H81.6214C77.6611 25.0707 74.4508 21.8604 74.4508 17.9001V1.60406C74.4508 1.50041 74.5348 1.41638 74.6384 1.41638C79.7173 1.41638 83.8346 5.53365 83.8346 10.6125V16.82Z"/>
<path d="M93.1294 15.6691C93.1294 11.7089 96.3397 8.49853 100.3 8.49853H102.124V17.9001C102.124 21.8604 98.9133 25.0707 94.9531 25.0707H93.1294V15.6691Z"/>
<path d="M130.505 25.0707C130.384 25.0707 130.271 25.0125 130.201 24.9145C130.158 24.8547 130.134 24.785 130.133 24.7116C130.122 23.6824 130.22 15.8007 135.708 13.172C135.886 13.0867 135.892 12.8206 135.717 12.7287C130.321 9.88797 130.288 2.73697 130.309 1.77249C130.311 1.7002 130.335 1.63297 130.377 1.57413C130.448 1.47513 130.562 1.41638 130.683 1.41638H135.41C138.248 1.41638 140.835 3.03989 142.069 5.59485C142.276 6.11238 142.752 7.67207 143.038 8.53786C143.051 8.57801 143.089 8.60476 143.131 8.60476C143.174 8.60476 143.211 8.57801 143.224 8.53786C143.511 7.67207 143.987 6.11238 144.229 5.59485C145.44 3.04289 148.012 1.41638 150.837 1.41638H155.54C155.664 1.41638 155.78 1.4763 155.852 1.57727C155.893 1.63418 155.917 1.69984 155.921 1.76968C155.971 2.74113 156.163 10.1571 150.575 12.7342C150.388 12.8202 150.387 13.1031 150.573 13.1908C156.177 15.84 156.126 23.6962 156.096 24.7138C156.094 24.7856 156.069 24.8539 156.028 24.9124C155.957 25.0118 155.842 25.0707 155.72 25.0707H150.561C147.956 25.0707 145.591 23.5477 144.512 21.1756C144.096 20.2731 143.577 18.5202 143.223 17.384C143.211 17.3431 143.173 17.3158 143.13 17.3158C143.088 17.3158 143.051 17.3419 143.038 17.3814C142.651 18.5175 142.132 20.2724 141.75 21.1756C140.649 23.5508 138.269 25.0707 135.651 25.0707H130.505Z"/>
<path d="M156.614 25.0707C156.494 25.0707 156.379 25.0125 156.309 24.9144C156.267 24.8547 156.243 24.7851 156.242 24.7117C156.23 23.6852 156.319 15.8339 161.781 13.1886C161.964 13.1002 161.963 12.8223 161.779 12.7358C156.173 10.0954 156.364 2.73578 156.415 1.76943C156.418 1.69965 156.443 1.63421 156.483 1.57736C156.555 1.47634 156.672 1.41638 156.796 1.41638H161.519C164.356 1.41638 166.943 3.03989 168.177 5.59485C168.384 6.11238 168.86 7.67207 169.147 8.53786C169.16 8.57801 169.197 8.60476 169.24 8.60476C169.282 8.60476 169.319 8.57801 169.333 8.53786C169.619 7.67207 170.096 6.11238 170.337 5.59485C171.549 3.04289 174.121 1.41638 176.946 1.41638H181.638C181.769 1.41638 181.891 1.47933 181.967 1.5854C182.004 1.63723 182.028 1.69582 182.035 1.75908C182.138 2.63767 182.715 9.40009 176.579 12.7356C176.411 12.8269 176.416 13.0804 176.587 13.1658C182.245 15.9901 182.23 23.707 182.204 24.714C182.202 24.786 182.178 24.854 182.136 24.9127C182.065 25.0119 181.951 25.0707 181.829 25.0707H176.67C174.064 25.0707 171.699 23.5477 170.621 21.1756C170.204 20.2731 169.686 18.5202 169.332 17.384C169.319 17.3431 169.281 17.3158 169.239 17.3158C169.197 17.3158 169.16 17.3419 169.146 17.3814C168.759 18.5175 168.241 20.2724 167.859 21.1756C166.757 23.5508 164.377 25.0707 161.759 25.0707C160.162 25.0707 158.623 25.0707 156.614 25.0707Z"/>
<path d="M104.676 25.0707V1.41638H107.808C111.798 1.41638 115.519 3.42655 117.707 6.7634C118.055 7.35492 119.531 10.2372 120.725 12.5881C120.762 12.6611 120.844 12.6983 120.924 12.6785C121.008 12.6573 121.064 12.5771 121.055 12.4902L120.83 10.3271C120.334 5.56265 124.071 1.41638 128.862 1.41638V25.0707H126.442C122.21 25.0707 118.268 22.924 115.972 19.3696C115.623 18.8466 114.519 16.7788 113.37 14.8562C113.337 14.8016 113.275 14.7721 113.212 14.7811C113.131 14.7927 113.072 14.8647 113.077 14.9468L113.162 16.4019C113.438 21.1052 109.698 25.0707 104.987 25.0707H104.676Z"/>
</mask>
<path d="M13.4915 8.3629C13.4915 4.52644 16.6015 1.41638 20.438 1.41638H22.4858V16.0764C22.4858 21.0438 18.4589 25.0707 13.4915 25.0707V17.0679H8.99432V18.1242C8.99432 21.9607 5.88426 25.0707 2.04781 25.0707H0V10.4107C0 5.44328 4.0269 1.41638 8.99432 1.41638V9.4192H13.4915V8.3629Z" fill="#EDF67D"/>
<path d="M23.765 1.66426L23.9421 1.41638L29.6564 1.5629C32.0404 1.62403 34.1433 3.13995 34.9548 5.38238C35.2381 6.01977 36.0171 9.52544 36.3004 10.871H36.5129C36.7962 9.52544 37.5752 6.01977 37.8585 5.38238C38.9913 3.09495 41.2958 1.62112 43.8474 1.55216L48.8712 1.41638L49.0483 1.66426L41.01 17.2804V25.0707H31.8033V17.2804L23.765 1.66426Z" fill="#EDF67D"/>
<path d="M50.2442 25.0707V1.41638H63.8773C69.6493 1.41638 71.7031 3.85972 71.7031 7.25915C71.7031 10.092 70.747 11.898 68.0912 12.5708V12.7478C71.1011 13.1373 72.6238 15.0495 72.6238 18.1302C72.6238 22.5566 70.3575 25.0707 64.621 25.0707H50.2442ZM59.4156 10.7294H61.5402C62.7088 10.7294 63.0983 10.3045 63.0983 9.4192V8.49853C63.0983 7.64867 62.7088 7.29456 61.5402 7.29456H59.4156V10.7294ZM59.4156 19.1926H61.8943C63.0983 19.1926 63.4524 18.7676 63.4524 17.847V16.7846C63.4524 15.9702 63.1337 15.5098 61.7527 15.5098H59.4156V19.1926Z" fill="#EDF67D"/>
<path d="M83.8346 16.82C88.0393 16.82 91.4479 20.2286 91.4479 24.4334V24.8478C91.4479 24.9709 91.3481 25.0707 91.2249 25.0707H81.6214C77.6611 25.0707 74.4508 21.8604 74.4508 17.9001V1.60406C74.4508 1.50041 74.5348 1.41638 74.6384 1.41638C79.7173 1.41638 83.8346 5.53365 83.8346 10.6125V16.82Z" fill="#EDF67D"/>
<path d="M93.1294 15.6691C93.1294 11.7089 96.3397 8.49853 100.3 8.49853H102.124V17.9001C102.124 21.8604 98.9133 25.0707 94.9531 25.0707H93.1294V15.6691Z" fill="#EDF67D"/>
<path d="M130.505 25.0707C130.384 25.0707 130.271 25.0125 130.201 24.9145C130.158 24.8547 130.134 24.785 130.133 24.7116C130.122 23.6824 130.22 15.8007 135.708 13.172C135.886 13.0867 135.892 12.8206 135.717 12.7287C130.321 9.88797 130.288 2.73697 130.309 1.77249C130.311 1.7002 130.335 1.63297 130.377 1.57413C130.448 1.47513 130.562 1.41638 130.683 1.41638H135.41C138.248 1.41638 140.835 3.03989 142.069 5.59485C142.276 6.11238 142.752 7.67207 143.038 8.53786C143.051 8.57801 143.089 8.60476 143.131 8.60476C143.174 8.60476 143.211 8.57801 143.224 8.53786C143.511 7.67207 143.987 6.11238 144.229 5.59485C145.44 3.04289 148.012 1.41638 150.837 1.41638H155.54C155.664 1.41638 155.78 1.4763 155.852 1.57727C155.893 1.63418 155.917 1.69984 155.921 1.76968C155.971 2.74113 156.163 10.1571 150.575 12.7342C150.388 12.8202 150.387 13.1031 150.573 13.1908C156.177 15.84 156.126 23.6962 156.096 24.7138C156.094 24.7856 156.069 24.8539 156.028 24.9124C155.957 25.0118 155.842 25.0707 155.72 25.0707H150.561C147.956 25.0707 145.591 23.5477 144.512 21.1756C144.096 20.2731 143.577 18.5202 143.223 17.384C143.211 17.3431 143.173 17.3158 143.13 17.3158C143.088 17.3158 143.051 17.3419 143.038 17.3814C142.651 18.5175 142.132 20.2724 141.75 21.1756C140.649 23.5508 138.269 25.0707 135.651 25.0707H130.505Z" fill="#EDF67D"/>
<path d="M156.614 25.0707C156.494 25.0707 156.379 25.0125 156.309 24.9144C156.267 24.8547 156.243 24.7851 156.242 24.7117C156.23 23.6852 156.319 15.8339 161.781 13.1886C161.964 13.1002 161.963 12.8223 161.779 12.7358C156.173 10.0954 156.364 2.73578 156.415 1.76943C156.418 1.69965 156.443 1.63421 156.483 1.57736C156.555 1.47634 156.672 1.41638 156.796 1.41638H161.519C164.356 1.41638 166.943 3.03989 168.177 5.59485C168.384 6.11238 168.86 7.67207 169.147 8.53786C169.16 8.57801 169.197 8.60476 169.24 8.60476C169.282 8.60476 169.319 8.57801 169.333 8.53786C169.619 7.67207 170.096 6.11238 170.337 5.59485C171.549 3.04289 174.121 1.41638 176.946 1.41638H181.638C181.769 1.41638 181.891 1.47933 181.967 1.5854C182.004 1.63723 182.028 1.69582 182.035 1.75908C182.138 2.63767 182.715 9.40009 176.579 12.7356C176.411 12.8269 176.416 13.0804 176.587 13.1658C182.245 15.9901 182.23 23.707 182.204 24.714C182.202 24.786 182.178 24.854 182.136 24.9127C182.065 25.0119 181.951 25.0707 181.829 25.0707H176.67C174.064 25.0707 171.699 23.5477 170.621 21.1756C170.204 20.2731 169.686 18.5202 169.332 17.384C169.319 17.3431 169.281 17.3158 169.239 17.3158C169.197 17.3158 169.16 17.3419 169.146 17.3814C168.759 18.5175 168.241 20.2724 167.859 21.1756C166.757 23.5508 164.377 25.0707 161.759 25.0707C160.162 25.0707 158.623 25.0707 156.614 25.0707Z" fill="#EDF67D"/>
<path d="M104.676 25.0707V1.41638H107.808C111.798 1.41638 115.519 3.42655 117.707 6.7634C118.055 7.35492 119.531 10.2372 120.725 12.5881C120.762 12.6611 120.844 12.6983 120.924 12.6785C121.008 12.6573 121.064 12.5771 121.055 12.4902L120.83 10.3271C120.334 5.56265 124.071 1.41638 128.862 1.41638V25.0707H126.442C122.21 25.0707 118.268 22.924 115.972 19.3696C115.623 18.8466 114.519 16.7788 113.37 14.8562C113.337 14.8016 113.275 14.7721 113.212 14.7811C113.131 14.7927 113.072 14.8647 113.077 14.9468L113.162 16.4019C113.438 21.1052 109.698 25.0707 104.987 25.0707H104.676Z" fill="#EDF67D"/>
<path d="M13.4915 8.3629C13.4915 4.52644 16.6015 1.41638 20.438 1.41638H22.4858V16.0764C22.4858 21.0438 18.4589 25.0707 13.4915 25.0707V17.0679H8.99432V18.1242C8.99432 21.9607 5.88426 25.0707 2.04781 25.0707H0V10.4107C0 5.44328 4.0269 1.41638 8.99432 1.41638V9.4192H13.4915V8.3629Z" stroke="#4C4B63" stroke-width="1.34449" mask="url(#path-3-inside-1_542_51)"/>
<path d="M23.765 1.66426L23.9421 1.41638L29.6564 1.5629C32.0404 1.62403 34.1433 3.13995 34.9548 5.38238C35.2381 6.01977 36.0171 9.52544 36.3004 10.871H36.5129C36.7962 9.52544 37.5752 6.01977 37.8585 5.38238C38.9913 3.09495 41.2958 1.62112 43.8474 1.55216L48.8712 1.41638L49.0483 1.66426L41.01 17.2804V25.0707H31.8033V17.2804L23.765 1.66426Z" stroke="#4C4B63" stroke-width="1.34449" mask="url(#path-3-inside-1_542_51)"/>
<path d="M50.2442 25.0707V1.41638H63.8773C69.6493 1.41638 71.7031 3.85972 71.7031 7.25915C71.7031 10.092 70.747 11.898 68.0912 12.5708V12.7478C71.1011 13.1373 72.6238 15.0495 72.6238 18.1302C72.6238 22.5566 70.3575 25.0707 64.621 25.0707H50.2442ZM59.4156 10.7294H61.5402C62.7088 10.7294 63.0983 10.3045 63.0983 9.4192V8.49853C63.0983 7.64867 62.7088 7.29456 61.5402 7.29456H59.4156V10.7294ZM59.4156 19.1926H61.8943C63.0983 19.1926 63.4524 18.7676 63.4524 17.847V16.7846C63.4524 15.9702 63.1337 15.5098 61.7527 15.5098H59.4156V19.1926Z" stroke="#4C4B63" stroke-width="1.34449" mask="url(#path-3-inside-1_542_51)"/>
<path d="M83.8346 16.82C88.0393 16.82 91.4479 20.2286 91.4479 24.4334V24.8478C91.4479 24.9709 91.3481 25.0707 91.2249 25.0707H81.6214C77.6611 25.0707 74.4508 21.8604 74.4508 17.9001V1.60406C74.4508 1.50041 74.5348 1.41638 74.6384 1.41638C79.7173 1.41638 83.8346 5.53365 83.8346 10.6125V16.82Z" stroke="#4C4B63" stroke-width="1.34449" mask="url(#path-3-inside-1_542_51)"/>
<path d="M93.1294 15.6691C93.1294 11.7089 96.3397 8.49853 100.3 8.49853H102.124V17.9001C102.124 21.8604 98.9133 25.0707 94.9531 25.0707H93.1294V15.6691Z" stroke="#4C4B63" stroke-width="1.34449" mask="url(#path-3-inside-1_542_51)"/>
<path d="M130.505 25.0707C130.384 25.0707 130.271 25.0125 130.201 24.9145C130.158 24.8547 130.134 24.785 130.133 24.7116C130.122 23.6824 130.22 15.8007 135.708 13.172C135.886 13.0867 135.892 12.8206 135.717 12.7287C130.321 9.88797 130.288 2.73697 130.309 1.77249C130.311 1.7002 130.335 1.63297 130.377 1.57413C130.448 1.47513 130.562 1.41638 130.683 1.41638H135.41C138.248 1.41638 140.835 3.03989 142.069 5.59485C142.276 6.11238 142.752 7.67207 143.038 8.53786C143.051 8.57801 143.089 8.60476 143.131 8.60476C143.174 8.60476 143.211 8.57801 143.224 8.53786C143.511 7.67207 143.987 6.11238 144.229 5.59485C145.44 3.04289 148.012 1.41638 150.837 1.41638H155.54C155.664 1.41638 155.78 1.4763 155.852 1.57727C155.893 1.63418 155.917 1.69984 155.921 1.76968C155.971 2.74113 156.163 10.1571 150.575 12.7342C150.388 12.8202 150.387 13.1031 150.573 13.1908C156.177 15.84 156.126 23.6962 156.096 24.7138C156.094 24.7856 156.069 24.8539 156.028 24.9124C155.957 25.0118 155.842 25.0707 155.72 25.0707H150.561C147.956 25.0707 145.591 23.5477 144.512 21.1756C144.096 20.2731 143.577 18.5202 143.223 17.384C143.211 17.3431 143.173 17.3158 143.13 17.3158C143.088 17.3158 143.051 17.3419 143.038 17.3814C142.651 18.5175 142.132 20.2724 141.75 21.1756C140.649 23.5508 138.269 25.0707 135.651 25.0707H130.505Z" stroke="#4C4B63" stroke-width="1.34449" mask="url(#path-3-inside-1_542_51)"/>
<path d="M156.614 25.0707C156.494 25.0707 156.379 25.0125 156.309 24.9144C156.267 24.8547 156.243 24.7851 156.242 24.7117C156.23 23.6852 156.319 15.8339 161.781 13.1886C161.964 13.1002 161.963 12.8223 161.779 12.7358C156.173 10.0954 156.364 2.73578 156.415 1.76943C156.418 1.69965 156.443 1.63421 156.483 1.57736C156.555 1.47634 156.672 1.41638 156.796 1.41638H161.519C164.356 1.41638 166.943 3.03989 168.177 5.59485C168.384 6.11238 168.86 7.67207 169.147 8.53786C169.16 8.57801 169.197 8.60476 169.24 8.60476C169.282 8.60476 169.319 8.57801 169.333 8.53786C169.619 7.67207 170.096 6.11238 170.337 5.59485C171.549 3.04289 174.121 1.41638 176.946 1.41638H181.638C181.769 1.41638 181.891 1.47933 181.967 1.5854C182.004 1.63723 182.028 1.69582 182.035 1.75908C182.138 2.63767 182.715 9.40009 176.579 12.7356C176.411 12.8269 176.416 13.0804 176.587 13.1658C182.245 15.9901 182.23 23.707 182.204 24.714C182.202 24.786 182.178 24.854 182.136 24.9127C182.065 25.0119 181.951 25.0707 181.829 25.0707H176.67C174.064 25.0707 171.699 23.5477 170.621 21.1756C170.204 20.2731 169.686 18.5202 169.332 17.384C169.319 17.3431 169.281 17.3158 169.239 17.3158C169.197 17.3158 169.16 17.3419 169.146 17.3814C168.759 18.5175 168.241 20.2724 167.859 21.1756C166.757 23.5508 164.377 25.0707 161.759 25.0707C160.162 25.0707 158.623 25.0707 156.614 25.0707Z" stroke="#4C4B63" stroke-width="1.34449" mask="url(#path-3-inside-1_542_51)"/>
<path d="M104.676 25.0707V1.41638H107.808C111.798 1.41638 115.519 3.42655 117.707 6.7634C118.055 7.35492 119.531 10.2372 120.725 12.5881C120.762 12.6611 120.844 12.6983 120.924 12.6785C121.008 12.6573 121.064 12.5771 121.055 12.4902L120.83 10.3271C120.334 5.56265 124.071 1.41638 128.862 1.41638V25.0707H126.442C122.21 25.0707 118.268 22.924 115.972 19.3696C115.623 18.8466 114.519 16.7788 113.37 14.8562C113.337 14.8016 113.275 14.7721 113.212 14.7811C113.131 14.7927 113.072 14.8647 113.077 14.9468L113.162 16.4019C113.438 21.1052 109.698 25.0707 104.987 25.0707H104.676Z" stroke="#4C4B63" stroke-width="1.34449" mask="url(#path-3-inside-1_542_51)"/>
<path d="M91.2645 2.07658C91.137 2.51616 90.9617 2.99299 90.7207 3.47103C90.2824 4.3402 89.6233 5.2198 88.6336 5.88145C88.1716 6.19031 87.6419 6.4488 87.0354 6.63685C87.6521 6.82524 88.1895 7.08554 88.657 7.3972C89.6498 8.05904 90.3074 8.93907 90.7423 9.80889C90.9489 10.2221 91.106 10.6345 91.2255 11.0226C91.4164 10.343 91.693 9.75674 92.0294 9.25201C92.6912 8.25899 93.5713 7.60148 94.4411 7.16687C94.8538 6.96069 95.2656 6.80394 95.6532 6.68472C94.9752 6.49386 94.3901 6.21761 93.8862 5.8817C92.8935 5.21986 92.2358 4.33982 91.8009 3.47001C91.5621 2.99233 91.3894 2.51588 91.2645 2.07658Z" fill="#EDF67D" stroke="#4C4B63" stroke-width="0.672243"/>
</svg>
